PathFileType	4	(X/Y/Z)	output.trc
DataRate	CameraRate	NumFrames	NumMarkers	Units	OrigDataRate	OrigDataStartFrame	OrigNumFrames
100	100	10	23	m	100	1407	2812
Frame#	Time	C7			T8			EL			EM			US			RS			AA			Fore_Clus_1			Fore_Clus_2			Fore_Clus_3			Fore_Clus_4			Hum_Clus_1			Hum_Clus_2			Hum_Clus_3			Hum_Clus_4			Thor_Clus_1			Thor_Clus_2			Thor_Clus_3			Thor_Clus_4			IJ			PX			GH			Thor_Clus_5		
		X1	Y1	Z1	X2	Y2	Z2	X3	Y3	Z3	X4	Y4	Z4	X5	Y5	Z5	X6	Y6	Z6	X7	Y7	Z7	X8	Y8	Z8	X9	Y9	Z9	X10	Y10	Z10	X11	Y11	Z11	X12	Y12	Z12	X13	Y13	Z13	X14	Y14	Z14	X15	Y15	Z15	X16	Y16	Z16	X17	Y17	Z17	X18	Y18	Z18	X19	Y19	Z19	X20	Y20	Z20	X21	Y21	Z21	X22	Y22	Z22	X23	Y23	Z23
1406	14.060000	-0.042800	1.429594	-0.085529	-0.066670	1.248481	-0.135793	-0.285163	1.084891	-0.005096	-0.222883	1.067571	-0.012096	-0.486581	1.013470	0.104822	-0.476273	1.064845	0.093344	-0.201568	1.343237	0.021501	-0.444909	1.015521	0.037704	-0.494047	1.014589	0.059531	-0.497705	1.042786	0.054874	-0.447651	1.061409	0.032769	-0.298060	1.181612	0.016221	-0.277608	1.182036	-0.040716	-0.269466	1.245256	-0.048027	-0.280120	1.253319	0.009505	0.061411	1.311062	0.037101	0.016822	1.257966	0.086570	0.021296	1.307925	0.057907	0.073802	1.261325	0.056106	-0.005428	1.340575	-0.005266	0.016626	1.162461	0.039562	-0.151759	1.336612	0.009349	0.011087	1.279347	0.077753
1407	14.070000	-0.042701	1.429592	-0.085394	-0.066647	1.248504	-0.135707	-0.285010	1.084833	-0.004901	-0.222735	1.067537	-0.012008	-0.486115	1.013370	0.105474	-0.475834	1.064763	0.094049	-0.201455	1.343250	0.021669	-0.444558	1.015747	0.037963	-0.493727	1.014532	0.060183	-0.497263	1.042696	0.055788	-0.447393	1.061172	0.033596	-0.297911	1.181519	0.016472	-0.277556	1.181990	-0.040415	-0.269414	1.245200	-0.047693	-0.280016	1.253234	0.009828	0.061526	1.310958	0.037120	0.016954	1.257886	0.086622	0.021418	1.307865	0.057975	0.073955	1.261215	0.056111	-0.005327	1.340536	-0.005174	0.016690	1.162400	0.039588	-0.151660	1.336583	0.009541	0.011177	1.279268	0.077792
1408	14.080000	-0.042573	1.429607	-0.085261	-0.066599	1.248547	-0.135637	-0.284861	1.084770	-0.004664	-0.222594	1.067494	-0.011885	-0.485596	1.013292	0.106194	-0.475341	1.064702	0.094827	-0.201333	1.343283	0.021807	-0.443960	1.016723	0.037475	-0.493396	1.014459	0.061061	-0.495201	1.042494	0.058681	-0.447128	1.061418	0.034118	-0.297775	1.181433	0.016783	-0.277467	1.181960	-0.040054	-0.269396	1.245147	-0.047353	-0.279905	1.253151	0.010185	0.061553	1.310980	0.037424	0.017024	1.257795	0.086655	0.021534	1.307818	0.058053	0.074070	1.261140	0.056138	-0.005212	1.340506	-0.005084	0.016748	1.162345	0.039604	-0.151550	1.336545	0.009710	0.011299	1.279209	0.077844
1409	14.090000	-0.042448	1.429630	-0.085123	-0.066553	1.248600	-0.135570	-0.284693	1.084696	-0.004389	-0.222433	1.067446	-0.011729	-0.485032	1.013240	0.106994	-0.474801	1.064666	0.095681	-0.201216	1.343320	0.021946	-0.444170	1.015131	0.039905	-0.493070	1.014447	0.061931	-0.495073	1.042489	0.059217	-0.446875	1.061168	0.034980	-0.297625	1.181370	0.017088	-0.277378	1.181908	-0.039764	-0.269351	1.245111	-0.047049	-0.279777	1.253089	0.010512	0.062918	1.310186	0.035866	0.017040	1.257673	0.086694	0.021659	1.307759	0.058134	0.074170	1.261072	0.056170	-0.005102	1.340481	-0.004992	0.016802	1.162293	0.039616	-0.151445	1.336510	0.009885	0.011411	1.279150	0.077888
1410	14.100000	-0.042323	1.429663	-0.084980	-0.066507	1.248665	-0.135505	-0.284510	1.084612	-0.004069	-0.222256	1.067392	-0.011535	-0.484430	1.013220	0.107882	-0.474219	1.064660	0.096610	-0.201100	1.343363	0.022083	-0.443175	1.016802	0.039137	-0.492617	1.014508	0.062856	-0.494405	1.042718	0.060516	-0.446470	1.061335	0.035842	-0.297441	1.181324	0.017449	-0.277283	1.181885	-0.039446	-0.269279	1.245088	-0.046764	-0.279644	1.253047	0.010845	0.063854	1.309565	0.034660	0.017153	1.257629	0.086772	0.021754	1.307706	0.058215	0.074273	1.261020	0.056218	-0.004993	1.340463	-0.004899	0.016854	1.162247	0.039623	-0.151343	1.336477	0.010063	0.011500	1.279099	0.077958
1411	14.110000	-0.042178	1.429713	-0.084836	-0.066444	1.248751	-0.135452	-0.284328	1.084526	-0.003693	-0.222083	1.067332	-0.011291	-0.483795	1.013239	0.108864	-0.473600	1.064687	0.097617	-0.200976	1.343424	0.022205	-0.442706	1.017210	0.039664	-0.492251	1.014542	0.063969	-0.493854	1.042581	0.061561	-0.446090	1.061496	0.036740	-0.297262	1.181264	0.017873	-0.277191	1.181835	-0.039119	-0.269236	1.245052	-0.046455	-0.279538	1.252977	0.011205	0.063900	1.309610	0.034853	0.017243	1.257564	0.086843	0.021854	1.307652	0.058304	0.074370	1.260963	0.056261	-0.004874	1.340456	-0.004806	0.016906	1.162208	0.039620	-0.151233	1.336441	0.010223	0.011602	1.279052	0.078039
1412	14.120000	-0.042060	1.429765	-0.084683	-0.066404	1.248839	-0.135389	-0.284117	1.084427	-0.003275	-0.221878	1.067270	-0.011008	-0.483137	1.013299	0.109953	-0.472953	1.064749	0.098703	-0.200862	1.343475	0.022351	-0.442970	1.015613	0.042173	-0.491828	1.014727	0.065138	-0.494041	1.042907	0.062347	-0.445749	1.061563	0.037720	-0.297093	1.181218	0.018271	-0.277110	1.181757	-0.038756	-0.269204	1.245014	-0.046076	-0.279418	1.252921	0.011600	0.063763	1.309696	0.035199	0.017329	1.257516	0.086925	0.021949	1.307610	0.058393	0.074480	1.260906	0.056296	-0.004768	1.340452	-0.004710	0.016959	1.162173	0.039616	-0.151136	1.336415	0.010405	0.011720	1.279028	0.078129
1413	14.130000	-0.041928	1.429831	-0.084531	-0.066351	1.248943	-0.135335	-0.283912	1.084328	-0.002800	-0.221682	1.067203	-0.010673	-0.482456	1.013403	0.111153	-0.472279	1.064848	0.099871	-0.200740	1.343541	0.022488	-0.441931	1.017808	0.041252	-0.491381	1.014879	0.066337	-0.493027	1.043017	0.064131	-0.445323	1.061687	0.038798	-0.296894	1.181138	0.018692	-0.277056	1.181666	-0.038356	-0.269198	1.244956	-0.045632	-0.279270	1.252845	0.012069	0.062001	1.310666	0.037878	0.017432	1.257464	0.086998	0.022065	1.307555	0.058452	0.074563	1.260860	0.056345	-0.004653	1.340458	-0.004616	0.017014	1.162145	0.039604	-0.151031	1.336386	0.010569	0.011823	1.278983	0.078198
1414	14.140000	-0.041817	1.429897	-0.084374	-0.066317	1.249046	-0.135273	-0.283690	1.084222	-0.002281	-0.221468	1.067135	-0.010298	-0.481756	1.013553	0.112478	-0.471584	1.064984	0.101127	-0.200626	1.343599	0.022644	-0.442431	1.015664	0.044497	-0.490920	1.015047	0.067727	-0.492174	1.043091	0.065576	-0.444878	1.061800	0.039966	-0.296675	1.181021	0.019211	-0.276992	1.181614	-0.037883	-0.269203	1.244891	-0.045127	-0.279104	1.252763	0.012538	0.062297	1.310465	0.037551	0.017551	1.257409	0.087058	0.022257	1.307629	0.058559	0.074673	1.260824	0.056369	-0.004548	1.340467	-0.004522	0.017074	1.162121	0.039590	-0.150935	1.336363	0.010743	0.011942	1.278959	0.078279
1415	14.150000	-0.041729	1.429959	-0.084217	-0.066299	1.249143	-0.135204	-0.283457	1.084110	-0.001720	-0.221243	1.067064	-0.009886	-0.481034	1.013748	0.113937	-0.470867	1.065155	0.102476	-0.200518	1.343648	0.022819	-0.441607	1.016880	0.044787	-0.490428	1.015156	0.069241	-0.491847	1.043205	0.067077	-0.444403	1.061954	0.041254	-0.296448	1.180853	0.019802	-0.276982	1.181503	-0.037328	-0.269202	1.244818	-0.044650	-0.278928	1.252650	0.013072	0.062346	1.310444	0.037691	0.017677	1.257353	0.087107	0.022479	1.307403	0.058498	0.074770	1.260770	0.056395	-0.004452	1.340475	-0.004428	0.017138	1.162099	0.039577	-0.150846	1.336347	0.010923	0.012046	1.278934	0.078337
